# xmcd CD database file generated by OrangeCD 6.4
#
# Track frame offsets:
#	150
#	8516
#	22824
#	40229
#	56863
#	75735
#	96349
#	115047
#	140435
#
# Disc length: 2110 seconds
#
# Revision: 0
# Processed by: cddbd v1.5.2PL0 Copyright (c) Steve Scherf et al.
# Submitted via: OrangeCD 6.4
#
DISCID=67083c09
DTITLE=Jimi Hendrix - Hendrix Live In Scandinavia Vol. 1
DYEAR=2007
DGENRE=Blues Rock
TTITLE0=Sgt. Pepper's Lonely Hearts Club Band
TTITLE1=Fire
TTITLE2=The Wind Cries Mary
TTITLE3=Foxy Lady
TTITLE4=Hey Joe
TTITLE5=I Don't Live Today
TTITLE6=Burning Of The Midnight Lamp
TTITLE7=Purple Haze
TTITLE8=Interview 05/09/67
EXTD=Radiohuset, Stockholm, Sweden\n1967-09-05
EXTT0=
EXTT1=
EXTT2=
EXTT3=
EXTT4=
EXTT5=
EXTT6=
EXTT7=
EXTT8=
PLAYORDER=
